<?xml version="1.0" encoding="UTF-8"?><svg id="Capa_1" xmlns="http://www.w3.org/2000/svg" viewBox="0 0 1920 1080"><path d="M0,0v1080h1920V0H0ZM1134.9,486.19l89.97,69.44c3.63,2.88.96,8.7-3.59,7.82l-185.69-35.13c-29.95-2.87-28.42-47.05,1.65-47.85l74.64-1.98c8.34-.22,16.49,2.5,23.01,7.7ZM1403.47,683.37c-773.91,184.12-699.48-101.39-888.66-193.16-6.41-3.11-6.69-12.06-.47-15.51,58.91-32.62,92.57-63.62,152.4-94.43,107.71-55.47,196.45-58.14,293.21-11.68,39.58,19,75.07,41.23,120.62,74.85,6.55,4.84,3.42,15.23-4.71,15.62l-421.93,15.67c-9.61.43-9.89,14.75-.29,15.34,338.34,20.64,662.09,139.09,751.25,176.86,7.72,3.27,6.73,14.49-1.42,16.43Z"/></svg>